<svg xmlns="http://www.w3.org/2000/svg" viewBox="0 0 43.02 48"><title>delete_icon</title><g id="Layer_2" data-name="Layer 2"><g id="Layer_1-2" data-name="Layer 1"><path d="M5,11.93l-3.35.74-.42.09A1,1,0,0,1,0,12a1,1,0,0,1,.73-1.19c1.38-.33,2.78-.63,4.16-.93C8,9.21,11,8.53,14.09,7.87a.5.5,0,0,0,.45-.53c.17-1.49.37-3,.56-4.47a1.05,1.05,0,0,1,.86-1L24.3,0a1,1,0,0,1,1.25.59c.76,1.23,1.54,2.45,2.27,3.7a.6.6,0,0,0,.79.32l13-2.88c.65-.14,1.07,0,1.31.44a1,1,0,0,1-.77,1.5l-9,2L15.81,9.55c-3,.66-5.9,1.29-8.84,1.94a1.44,1.44,0,0,0-.5.18l.38,0c4.76,0,9.52,0,14.28,0a1.8,1.8,0,0,0,.87-.26q3-1.92,6.06-3.89a1.34,1.34,0,0,1,1.56,0c.93.56,1.89,1.06,2.83,1.59A.43.43,0,0,0,33,9c.59-.5,1.18-1,1.78-1.47a1,1,0,0,1,1.71.36c.63,1.16,1.26,2.32,1.92,3.47a.71.71,0,0,0,.5.3c.57,0,1.15,0,1.73,0,.95,0,1.34.4,1.27,1.33-.16,2.05-.33,4.09-.5,6.14C41.2,22.1,41,25,40.73,28q-.46,5.65-.91,11.29l-.6,7.51a2.31,2.31,0,0,1-.14.74.84.84,0,0,1-.91.51H8.63c-.67,0-1-.27-1.05-.93-.17-2-.32-4-.48-6-.24-2.93-.47-5.86-.71-8.79s-.47-5.95-.71-8.93c-.27-3.3-.55-6.61-.8-9.91A12,12,0,0,1,5,11.93Zm34.91,1.83H6.9c.14,1.75.28,3.47.42,5.18q.39,4.93.8,9.87l.6,7.61.72,8.93c.05.71,0,.72.74.72h27.1C38.15,35.27,39,24.53,39.88,13.76ZM16.55,7.29,26,5.2c-.62-1-1.2-2-1.81-2.89-.06-.1-.3-.13-.44-.1q-3.24.69-6.46,1.43A.51.51,0,0,0,17,4C16.82,5,16.7,6.11,16.55,7.29Zm8.81,4.37H36.29l-1-1.84a.51.51,0,0,0-.15.07l-1.42,1.17c-.63.51-.87.54-1.57.16L29.21,9.61c-.14-.08-.39-.15-.5-.08C27.62,10.2,26.55,10.9,25.36,11.66Z"/><path d="M17,40.46a3.82,3.82,0,0,1-.12.69,1,1,0,0,1-1.07.58,1,1,0,0,1-.82-1c-.16-2-.31-4-.47-6-.27-3.39-.53-6.79-.8-10.19-.14-1.72-.28-3.43-.41-5.15a2.07,2.07,0,0,1,0-.61,1,1,0,0,1,1-.73.93.93,0,0,1,.92.9q.24,2.88.47,5.76c.24,3,.47,6,.71,9,.17,2.24.35,4.47.53,6.71Z"/><path d="M33.5,19.52c-.27,3.44-.55,6.89-.82,10.34L32,38.69c-.06.66-.11,1.32-.17,2s-.47,1.1-1.06,1.07a1,1,0,0,1-.92-1.24c.13-1.69.27-3.37.4-5.06L31,26.52q.28-3.7.58-7.41a1,1,0,0,1,1.08-1,1,1,0,0,1,.89,1.11c0,.1,0,.19,0,.29Z"/><path d="M24.39,29.93c0,3.53,0,7.07,0,10.61,0,.65-.24,1-.73,1.17a1,1,0,0,1-1.25-1.09V19.31c0-.71.33-1.14.89-1.19a1,1,0,0,1,1.09,1.05c0,2.17,0,4.33,0,6.49Z"/></g></g></svg>