<svg xmlns="http://www.w3.org/2000/svg" viewBox="0 0 46 48"><title>write_icon</title><g id="Layer_2" data-name="Layer 2"><g id="Layer_1-2" data-name="Layer 1"><path d="M46,10.71l-.67.68L13.91,44.12a1.05,1.05,0,0,1-.52.3l-11.22,3L.26,48,0,48c.16-.66.3-1.28.45-1.9Q2,40,3.53,33.87a.8.8,0,0,1,.22-.36Q19.31,17.28,34.89,1.05l1-1h2.82a1.13,1.13,0,0,0,.1.13l7.08,7.38.14.12ZM31.39,7.78Q19,20.7,6.59,33.63l7.21,7.51q12.4-12.91,24.8-25.85Zm8.74,6,.18-.18,2.92-3c.23-.25.56-.46.67-.76a3,3,0,0,0,0-1.09.44.44,0,0,0-.11-.27q-2.94-3.07-5.89-6.14a.56.56,0,0,0-.28-.13,1.58,1.58,0,0,0-1.46.59C35.11,3.88,34,5,32.93,6.13a.32.32,0,0,0-.06.07ZM5.24,35.5,2.84,45c.48,0,8.84-2.29,9.23-2.55Z"/></g></g></svg>