<svg xmlns="http://www.w3.org/2000/svg" viewBox="0 0 111.3 103.35"><defs><style>.cls-1{fill:#fff;}</style></defs><title>joy</title><g id="Layer_2" data-name="Layer 2"><g id="Layer_1-2" data-name="Layer 1"><rect class="cls-1" x="103.35" y="55.65" width="7.95" height="7.95"/><rect class="cls-1" x="103.35" y="47.7" width="7.95" height="7.95"/><rect class="cls-1" x="95.4" y="71.55" width="7.95" height="7.95"/><rect class="cls-1" x="95.4" y="63.6" width="7.95" height="7.95"/><rect class="cls-1" x="87.45" y="79.5" width="7.95" height="7.95"/><rect class="cls-1" x="79.5" y="87.45" width="7.95" height="7.95"/><rect class="cls-1" x="79.5" y="15.9" width="7.95" height="7.95"/><rect class="cls-1" x="79.5" y="7.95" width="7.95" height="7.95"/><rect class="cls-1" x="79.5" width="7.95" height="7.95"/><rect class="cls-1" x="71.55" y="87.45" width="7.95" height="7.95"/><rect class="cls-1" x="63.6" y="95.4" width="7.95" height="7.95"/><rect class="cls-1" x="55.65" y="95.4" width="7.95" height="7.95"/><rect class="cls-1" x="47.7" y="95.4" width="7.95" height="7.95"/><rect class="cls-1" x="39.75" y="95.4" width="7.95" height="7.95"/><rect class="cls-1" x="31.8" y="87.45" width="7.95" height="7.95"/><rect class="cls-1" x="23.85" y="87.45" width="7.95" height="7.95"/><rect class="cls-1" x="23.85" y="15.9" width="7.95" height="7.95"/><rect class="cls-1" x="23.85" y="7.95" width="7.95" height="7.95"/><rect class="cls-1" x="23.85" width="7.95" height="7.95"/><rect class="cls-1" x="15.9" y="79.5" width="7.95" height="7.95"/><rect class="cls-1" x="7.95" y="71.55" width="7.95" height="7.95"/><rect class="cls-1" x="7.95" y="63.6" width="7.95" height="7.95"/><rect class="cls-1" y="55.65" width="7.95" height="7.95"/><rect class="cls-1" y="47.7" width="7.95" height="7.95"/></g></g></svg>