<svg xmlns="http://www.w3.org/2000/svg" viewBox="0 0 95.4 95.4"><defs><style>.cls-1{fill:#fff;}</style></defs><title>sad</title><g id="Layer_2" data-name="Layer 2"><g id="Layer_1-2" data-name="Layer 1"><rect class="cls-1" x="87.45" y="87.45" width="7.95" height="7.95"/><rect class="cls-1" x="87.45" y="79.5" width="7.95" height="7.95"/><rect class="cls-1" x="79.5" y="71.55" width="7.95" height="7.95"/><rect class="cls-1" x="71.55" y="63.6" width="7.95" height="7.95"/><rect class="cls-1" x="71.55" y="15.9" width="7.95" height="7.95"/><rect class="cls-1" x="71.55" y="7.95" width="7.95" height="7.95"/><rect class="cls-1" x="71.55" width="7.95" height="7.95"/><rect class="cls-1" x="63.6" y="55.65" width="7.95" height="7.95"/><rect class="cls-1" x="55.65" y="55.65" width="7.95" height="7.95"/><rect class="cls-1" x="47.7" y="55.65" width="7.95" height="7.95"/><rect class="cls-1" x="39.75" y="55.65" width="7.95" height="7.95"/><rect class="cls-1" x="31.8" y="55.65" width="7.95" height="7.95"/><rect class="cls-1" x="23.85" y="55.65" width="7.95" height="7.95"/><rect class="cls-1" x="15.9" y="63.6" width="7.95" height="7.95"/><rect class="cls-1" x="15.9" y="15.9" width="7.95" height="7.95"/><rect class="cls-1" x="15.9" y="7.95" width="7.95" height="7.95"/><rect class="cls-1" x="15.9" width="7.95" height="7.95"/><rect class="cls-1" x="7.95" y="71.55" width="7.95" height="7.95"/><rect class="cls-1" y="87.45" width="7.95" height="7.95"/><rect class="cls-1" y="79.5" width="7.95" height="7.95"/></g></g></svg>